<svg version="1.1" id="Layer_1" xmlns="http://www.w3.org/2000/svg" xmlns:xlink="http://www.w3.org/1999/xlink" x="0px" y="0px"
	 width="100%" viewBox="0 0 200 200" enable-background="new 0 0 200 200" xml:space="preserve">
<path fill="#F7F7F7" opacity="1.000000" stroke="none" 
	d="
M201.000000,79.000000 
	C201.000000,119.974678 201.000000,160.449356 201.000000,200.962006 
	C134.400360,200.962006 67.800690,200.962006 1.100509,200.962006 
	C1.100509,134.442154 1.100509,67.884117 1.100509,1.163035 
	C67.666344,1.163035 134.333145,1.163035 201.000000,1.163035 
	C201.000000,26.865711 201.000000,52.682858 201.000000,79.000000 
M152.500000,68.000000 
	C107.443558,68.000000 62.387119,68.000000 17.311138,68.000000 
	C17.311138,72.720161 17.311138,76.797058 17.311138,80.908813 
	C73.626160,80.908813 129.629303,80.908813 185.689453,80.908813 
	C185.689453,76.480690 185.689453,72.413307 185.689453,68.000000 
	C174.755173,68.000000 164.127594,68.000000 152.500000,68.000000 
M17.002071,30.380205 
	C16.642715,34.560711 19.812595,33.236294 21.779961,33.238426 
	C73.443909,33.294418 125.107941,33.284100 176.771957,33.274567 
	C178.049728,33.274330 179.327484,33.154194 180.778168,33.081287 
	C180.778168,28.633177 180.778168,24.549932 180.778168,20.263130 
	C126.165070,20.263130 71.773979,20.263130 17.000259,20.263130 
	C17.000259,23.479939 17.000259,26.445942 17.002071,30.380205 
M22.632210,140.000000 
	C20.874601,140.000000 19.116995,140.000000 17.429636,140.000000 
	C17.429636,144.799225 17.429636,148.850296 17.429636,153.389740 
	C68.390182,153.389740 118.922203,153.389740 169.656677,153.389740 
	C169.656677,149.191315 169.656677,144.807434 169.656677,140.000000 
	C120.743172,140.000000 72.171730,140.000000 22.632210,140.000000 
M58.500000,116.000000 
	C44.760139,116.000000 31.020277,116.000000 17.357521,116.000000 
	C17.357521,120.787689 17.357521,124.860008 17.357521,128.853058 
	C68.367386,128.853058 119.018745,128.853058 169.639587,128.853058 
	C169.639587,124.393204 169.639587,120.336166 169.639587,116.000000 
	C132.686615,116.000000 96.093307,116.000000 58.500000,116.000000 
M115.500000,44.000000 
	C82.742538,44.000000 49.985077,44.000000 17.291590,44.000000 
	C17.291590,48.764545 17.291590,52.858883 17.291590,56.918427 
	C63.297321,56.918427 109.010490,56.918427 154.706131,56.918427 
	C154.706131,52.465698 154.706131,48.385288 154.706131,44.000000 
	C141.776474,44.000000 129.138245,44.000000 115.500000,44.000000 
M78.499947,105.270844 
	C97.231056,105.270844 115.962166,105.270844 134.683014,105.270844 
	C134.683014,100.447533 134.683014,96.377235 134.683014,92.335968 
	C95.334511,92.335968 56.303963,92.335968 17.314991,92.335968 
	C17.314991,96.761795 17.314991,100.843483 17.314991,105.271049 
	C37.585316,105.271049 57.542629,105.271049 78.499947,105.270844 
z"/>
<path fill="#7A3E9D" opacity="1.000000" stroke="none" 
	d="
M153.000000,68.000000 
	C164.127594,68.000000 174.755173,68.000000 185.689453,68.000000 
	C185.689453,72.413307 185.689453,76.480690 185.689453,80.908813 
	C129.629303,80.908813 73.626160,80.908813 17.311138,80.908813 
	C17.311138,76.797058 17.311138,72.720161 17.311138,68.000000 
	C62.387119,68.000000 107.443558,68.000000 153.000000,68.000000 
z"/>
<path fill="#AA3731" opacity="1.000000" stroke="none" 
	d="
M17.001165,29.896076 
	C17.000259,26.445942 17.000259,23.479939 17.000259,20.263130 
	C71.773979,20.263130 126.165070,20.263130 180.778168,20.263130 
	C180.778168,24.549932 180.778168,28.633177 180.778168,33.081287 
	C179.327484,33.154194 178.049728,33.274330 176.771957,33.274567 
	C125.107941,33.284100 73.443909,33.294418 21.779961,33.238426 
	C19.812595,33.236294 16.642715,34.560711 17.001165,29.896076 
z"/>
<path fill="#FFBC5D" opacity="1.000000" stroke="none" 
	d="
M23.116247,140.000000 
	C72.171730,140.000000 120.743172,140.000000 169.656677,140.000000 
	C169.656677,144.807434 169.656677,149.191315 169.656677,153.389740 
	C118.922203,153.389740 68.390182,153.389740 17.429636,153.389740 
	C17.429636,148.850296 17.429636,144.799225 17.429636,140.000000 
	C19.116995,140.000000 20.874601,140.000000 23.116247,140.000000 
z"/>
<path fill="#777777" opacity="1.000000" stroke="none" 
	d="
M59.000000,116.000000 
	C96.093307,116.000000 132.686615,116.000000 169.639587,116.000000 
	C169.639587,120.336166 169.639587,124.393204 169.639587,128.853058 
	C119.018745,128.853058 68.367386,128.853058 17.357521,128.853058 
	C17.357521,124.860008 17.357521,120.787689 17.357521,116.000000 
	C31.020277,116.000000 44.760139,116.000000 59.000000,116.000000 
z"/>
<path fill="#448C27" opacity="1.000000" stroke="none" 
	d="
M116.000000,44.000000 
	C129.138245,44.000000 141.776474,44.000000 154.706131,44.000000 
	C154.706131,48.385288 154.706131,52.465698 154.706131,56.918427 
	C109.010490,56.918427 63.297321,56.918427 17.291590,56.918427 
	C17.291590,52.858883 17.291590,48.764545 17.291590,44.000000 
	C49.985077,44.000000 82.742538,44.000000 116.000000,44.000000 
z"/>
<path fill="#325CC0" opacity="1.000000" stroke="none" 
	d="
M77.999939,105.270950 
	C57.542629,105.271049 37.585316,105.271049 17.314991,105.271049 
	C17.314991,100.843483 17.314991,96.761795 17.314991,92.335968 
	C56.303963,92.335968 95.334511,92.335968 134.683014,92.335968 
	C134.683014,96.377235 134.683014,100.447533 134.683014,105.270844 
	C115.962166,105.270844 97.231056,105.270844 77.999939,105.270950 
z"/>
</svg>